<?xml version="1.0" standalone="no"?>
<!DOCTYPE svg PUBLIC "-//W3C//DTD SVG 20010904//EN"
 "http://www.w3.org/TR/2001/REC-SVG-20010904/DTD/svg10.dtd">
<svg version="1.0" xmlns="http://www.w3.org/2000/svg"
 width="262.000000pt" height="262.000000pt" viewBox="0 0 262.000000 262.000000"
 preserveAspectRatio="xMidYMid meet">
<metadata>
Created by potrace 1.11, written by Peter Selinger 2001-2013
</metadata>
<g transform="translate(0.000000,262.000000) scale(0.100000,-0.100000)"
fill="#000000" stroke="none">
<path d="M1252 2600 c7 -11 16 -20 20 -20 5 0 8 -4 8 -9 0 -5 -20 -11 -46 -13
-37 -3 -49 1 -66 19 -12 13 -28 23 -36 23 -12 0 -10 -6 7 -24 l22 -23 -32 -7
c-53 -10 -75 -7 -94 14 -18 20 -45 27 -45 12 0 -4 9 -13 20 -20 28 -17 18 -29
-30 -37 -28 -5 -46 -2 -62 9 -24 17 -58 21 -58 7 0 -5 11 -12 25 -15 36 -9 31
-18 -20 -40 -42 -17 -47 -17 -70 -2 -13 9 -31 16 -40 16 -24 0 -17 -19 10 -26
35 -9 31 -17 -17 -37 -38 -17 -60 -17 -102 -1 -27 10 -17 -12 11 -25 l27 -12
-42 -25 c-36 -21 -47 -24 -77 -15 -20 5 -37 6 -40 0 -3 -4 6 -11 20 -15 33 -8
32 -14 -9 -46 -28 -22 -40 -26 -75 -21 -27 4 -41 2 -41 -6 0 -6 11 -11 25 -11
33 0 32 -10 -8 -48 -28 -27 -37 -31 -68 -26 -22 4 -39 2 -43 -5 -5 -7 3 -11
22 -11 42 0 43 -7 7 -45 -23 -26 -40 -35 -63 -35 -17 0 -34 -4 -37 -10 -4 -6
7 -10 25 -10 l31 0 -31 -45 c-27 -39 -36 -45 -65 -45 -19 0 -35 -4 -35 -10 0
-5 13 -10 30 -10 l30 0 -24 -42 c-18 -33 -32 -45 -60 -52 -43 -11 -49 -31 -6
-22 33 6 35 4 20 -22 -5 -9 -14 -29 -19 -43 -7 -18 -19 -28 -42 -33 -18 -3
-30 -9 -27 -12 9 -8 128 17 135 29 4 7 -5 8 -25 4 -37 -8 -37 -9 -14 40 20 45
29 53 60 53 12 0 22 5 22 10 0 6 -9 10 -20 10 -24 0 -25 11 -5 50 9 17 24 30
34 30 27 0 51 10 51 22 0 5 -9 6 -20 3 -26 -8 -25 3 5 48 20 29 33 37 58 38
23 1 26 3 10 6 -29 6 -29 9 3 50 21 28 31 33 59 31 43 -3 56 9 20 18 l-26 7
31 32 c28 28 37 33 66 28 22 -4 34 -2 34 6 0 6 -10 11 -22 11 -21 0 -21 0 -2
21 29 32 52 41 85 34 l31 -7 -54 -50 c-33 -31 -48 -51 -40 -54 19 -9 14 -32
-15 -69 -28 -35 -43 -37 -43 -4 0 10 -5 19 -11 19 -7 0 -9 -12 -5 -35 6 -30 3
-39 -23 -64 -27 -26 -30 -27 -34 -10 -3 11 -10 19 -16 19 -13 0 -14 -11 -2
-42 7 -19 3 -31 -19 -58 -26 -32 -28 -33 -34 -12 -4 12 -12 22 -17 22 -11 0
-11 -3 1 -36 8 -20 6 -35 -7 -65 -21 -45 -28 -48 -38 -16 -6 18 -8 19 -12 5
-2 -9 0 -26 6 -36 8 -15 6 -28 -5 -52 -20 -39 -12 -51 11 -16 l17 26 20 -26
c19 -23 19 -26 4 -43 -9 -10 -16 -26 -16 -36 0 -14 -3 -15 -15 -5 -8 7 -15 21
-15 31 0 11 -7 19 -15 19 -8 0 -19 9 -25 21 -7 11 -14 18 -17 16 -2 -3 1 -15
7 -28 9 -17 10 -31 1 -60 -11 -35 -31 -54 -31 -29 0 6 -4 10 -10 10 -15 0 -12
-21 6 -41 14 -15 14 -23 3 -53 -9 -24 -16 -33 -23 -26 -31 31 -34 -5 -3 -38
14 -16 18 -26 10 -29 -7 -2 -9 -11 -6 -20 4 -10 2 -14 -5 -9 -6 3 -13 2 -17
-4 -3 -5 -16 -10 -29 -10 -12 0 -27 -5 -34 -12 -17 -17 -21 -8 -15 44 5 40 10
48 34 59 30 12 39 29 16 29 -7 0 -19 -6 -26 -12 -10 -11 -12 -4 -8 36 3 49 10
58 49 70 28 8 21 24 -7 18 -24 -4 -25 -3 -15 22 12 33 13 49 1 42 -5 -3 -12
-22 -15 -41 -6 -28 -15 -39 -49 -57 -23 -11 -37 -23 -30 -25 7 -2 21 1 32 7
23 12 26 0 15 -58 -6 -27 -45 -59 -66 -54 -5 1 -8 -7 -8 -19 0 -19 1 -19 22
-5 33 24 38 20 38 -27 0 -36 -5 -47 -29 -65 l-30 -22 -4 23 c-2 12 -4 -7 -4
-43 0 -36 2 -52 4 -35 4 26 27 54 46 55 4 0 7 -20 7 -45 0 -36 -5 -51 -25 -69
-14 -13 -25 -29 -25 -36 0 -9 8 -6 23 8 13 12 26 22 30 22 3 0 7 -19 9 -42 2
-35 7 -44 24 -46 11 -2 27 4 34 13 18 22 4 31 -19 11 -18 -16 -19 -16 -25 6
-13 50 -7 76 23 98 16 11 32 16 35 11 4 -5 0 -12 -6 -15 -7 -3 -4 -4 8 -1 27
7 48 -18 42 -50 -3 -13 0 -26 6 -28 6 -2 8 -7 4 -11 -3 -4 -16 -3 -27 4 -28
15 -27 -4 1 -24 12 -9 33 -16 45 -16 24 0 25 6 6 73 -2 9 0 17 4 17 20 0 42
-27 45 -55 2 -22 9 -31 26 -33 26 -4 30 -24 4 -21 -34 3 -48 -1 -34 -9 7 -5
14 -17 16 -28 2 -10 6 -23 8 -29 1 -5 -1 -12 -7 -15 -5 -3 -19 14 -30 37 -15
31 -26 42 -42 43 -13 0 -23 -6 -23 -14 0 -7 -6 -26 -14 -40 -9 -18 -11 -39 -6
-68 6 -29 4 -51 -4 -67 -15 -27 -19 -22 -34 32 -9 33 -8 42 8 59 10 11 21 29
23 40 5 18 2 17 -23 -7 l-28 -27 -7 46 c-6 34 -12 46 -25 46 -20 0 -56 -37
-46 -47 4 -4 16 3 25 16 17 23 19 23 24 5 19 -62 18 -89 -2 -111 -29 -31 -26
-52 3 -24 l23 22 17 -46 c17 -44 17 -45 -4 -75 -12 -16 -18 -35 -14 -41 4 -7
13 0 24 17 l18 27 22 -45 c19 -41 19 -47 5 -74 -17 -34 -19 -44 -6 -44 5 0 13
9 16 20 9 29 19 25 43 -19 18 -32 20 -44 12 -66 -17 -44 -11 -63 9 -27 l17 34
27 -41 c22 -34 26 -49 22 -83 -5 -39 -4 -41 7 -18 6 14 13 27 15 29 1 2 16
-11 33 -30 26 -28 30 -40 26 -71 -5 -46 10 -60 21 -19 l8 30 32 -28 c27 -24
33 -36 33 -69 0 -23 5 -44 10 -47 6 -4 10 7 10 24 0 17 3 31 6 31 5 0 48 -28
73 -46 3 -3 7 -25 10 -66 2 -31 21 -19 21 13 l0 30 32 -22 c44 -29 58 -48 58
-75 0 -13 5 -26 11 -30 8 -5 10 3 7 25 -5 36 0 38 51 11 31 -15 40 -27 45 -55
4 -21 13 -35 21 -35 18 0 19 5 3 30 -17 27 -8 31 42 16 39 -11 46 -18 54 -50
5 -20 15 -36 23 -36 16 0 16 1 3 34 -11 30 -10 30 45 15 42 -12 64 -33 65 -61
0 -10 7 -18 16 -18 10 0 14 5 10 15 -3 8 -9 22 -13 32 -5 13 -2 15 18 10 13
-4 36 -7 50 -7 21 0 31 -8 43 -35 9 -19 24 -35 33 -35 14 0 14 2 -1 25 -9 13
-16 28 -16 33 0 15 94 0 107 -17 19 -25 16 -30 -29 -34 -34 -3 -29 -4 20 -5
l63 -2 -20 29 -21 29 23 6 c46 12 75 6 95 -19 11 -14 28 -25 38 -25 16 1 15 5
-9 25 -30 27 -28 29 33 39 29 5 40 1 63 -20 18 -17 34 -23 45 -19 14 5 13 9
-10 21 -36 19 -35 29 5 42 31 11 31 12 -11 7 -34 -4 -49 -1 -69 15 -31 24 -44
18 -19 -9 16 -18 16 -19 -6 -25 -44 -11 -78 -6 -90 14 -7 11 -18 20 -25 20
-15 0 -17 -16 -3 -25 22 -14 8 -25 -32 -25 -34 0 -47 5 -64 27 -12 16 -26 25
-30 20 -4 -4 -2 -13 4 -19 21 -21 13 -28 -32 -28 -39 0 -46 4 -58 28 l-14 27
98 0 c87 0 96 2 81 15 -12 11 -17 12 -20 3 -3 -7 -12 -13 -20 -13 -10 0 -13 6
-9 16 3 9 6 17 6 20 0 11 60 32 78 27 26 -6 27 -11 5 -35 -13 -15 -14 -18 -2
-18 21 0 39 20 39 43 0 10 4 15 10 12 6 -4 7 1 3 10 -6 17 -37 17 -91 0 -19
-6 -21 -5 -15 11 7 18 6 18 -11 2 -18 -19 -62 -24 -83 -10 -16 10 13 56 31 49
7 -3 19 -1 27 4 10 6 2 9 -26 10 -22 1 -55 3 -72 5 -18 2 -33 -1 -33 -6 0 -6
14 -10 30 -10 35 0 36 -6 11 -37 -17 -20 -23 -21 -50 -12 -35 12 -38 21 -16
42 23 24 4 29 -21 6 -18 -17 -30 -20 -59 -15 -29 6 -35 11 -30 26 5 15 2 17
-15 13 -11 -3 -23 -9 -26 -14 -3 -5 -19 -2 -37 7 -22 12 -32 13 -35 5 -2 -6
-8 -8 -14 -5 -6 4 -5 10 3 15 20 12 4 22 -18 11 -20 -11 -83 9 -83 27 0 17 43
23 74 12 34 -14 131 -14 101 -1 l-20 9 20 1 c18 1 19 1 3 11 -24 14 -23 29 3
29 11 0 17 -5 14 -10 -3 -6 1 -10 9 -10 10 0 13 6 9 16 -5 13 -17 15 -64 10
-45 -4 -59 -2 -59 8 0 9 21 16 63 21 46 5 57 9 42 15 -13 6 9 9 62 9 45 1 83
-3 85 -7 2 -5 37 -16 78 -25 l75 -15 -95 -1 c-167 0 -170 0 -170 -15 0 -20 56
-28 194 -26 181 2 186 2 186 -15 0 -11 -11 -15 -37 -16 -82 -1 -77 -16 7 -23
46 -4 90 -12 97 -18 7 -6 25 -8 39 -5 25 4 25 3 19 -30 -4 -24 -3 -33 4 -28 6
3 11 17 11 31 0 18 8 27 28 34 15 6 35 15 45 20 14 8 17 6 17 -11 0 -12 4 -17
11 -14 6 4 8 13 5 20 -3 8 4 17 15 20 12 4 18 13 15 21 -6 16 10 29 19 14 4
-6 12 -7 18 -3 6 4 20 8 32 9 11 1 34 9 50 18 26 14 30 14 33 1 2 -8 7 -15 12
-15 4 0 6 8 4 18 -3 11 7 25 28 40 29 20 33 20 36 6 2 -9 -6 -30 -18 -46 l-21
-29 25 7 c22 5 26 3 26 -15 0 -12 5 -21 10 -21 6 0 9 3 9 7 -6 39 3 59 33 71
21 8 34 9 36 2 8 -23 22 -8 22 23 0 31 3 34 43 43 36 8 42 13 45 36 2 16 8 28
13 28 5 0 9 5 9 11 0 12 -42 8 -52 -6 -4 -5 -2 -12 4 -16 6 -4 7 -12 3 -20 -6
-9 -11 -6 -16 10 -7 16 -15 21 -36 19 -19 -2 -28 2 -31 14 -2 11 2 18 11 18 7
0 24 12 38 26 13 14 20 25 14 23 -5 -1 -21 3 -35 9 -24 11 -23 11 12 10 26 -2
45 5 60 19 13 11 29 18 37 16 9 -4 11 0 6 16 -7 22 21 70 41 71 22 0 22 -39 2
-66 -19 -23 -19 -27 -5 -41 18 -18 44 -8 28 11 -6 7 -6 17 -1 26 7 11 12 8 21
-15 10 -24 13 -26 16 -12 3 10 3 24 0 30 -9 25 -7 31 15 32 13 1 42 5 66 9
l43 8 -6 -29 c-5 -28 -5 -28 12 5 13 25 25 34 55 38 21 4 41 11 45 17 4 7 -7
8 -31 4 -39 -6 -39 -5 -19 50 3 7 -8 11 -31 11 -19 0 -48 8 -64 17 -25 15 -32
16 -58 4 -22 -11 -31 -24 -38 -57 -5 -23 -13 -42 -18 -42 -17 0 -21 33 -9 67
10 28 10 37 -1 51 -12 15 -11 16 5 3 23 -18 32 -9 17 18 -8 15 -8 26 0 39 9
15 10 14 5 -5 -4 -14 -2 -23 4 -23 6 0 11 12 11 26 0 24 3 26 31 20 17 -3 39
-2 49 4 9 5 20 6 24 3 12 -12 54 -14 61 -3 3 5 13 10 21 10 11 0 13 -6 9 -21
-10 -32 17 -19 34 16 7 15 26 33 42 39 16 5 29 17 29 24 0 12 -5 11 -26 -3
-14 -9 -28 -15 -30 -12 -8 8 14 90 29 104 8 8 23 16 33 17 13 2 20 12 21 32 2
27 2 28 -8 7 -6 -12 -20 -23 -30 -26 -16 -4 -19 1 -19 38 0 49 22 79 51 72 16
-4 19 1 19 27 0 72 -14 190 -20 167 -5 -22 -7 -23 -22 -8 -9 10 -21 17 -27 17
-15 0 -14 5 9 42 l19 32 11 -25 11 -24 -6 25 c-2 14 -5 34 -5 45 -1 20 -1 20
-15 1 -17 -23 -23 -19 -34 22 -9 30 6 61 22 45 25 -24 -28 131 -86 256 -21 45
-84 151 -96 161 -4 3 -24 29 -46 59 l-39 54 -11 -34 c-9 -27 -13 -30 -21 -18
-5 9 -22 24 -37 34 -24 16 -30 16 -38 4 -12 -19 -11 -36 1 -44 6 -3 10 1 10 9
0 28 20 27 45 -1 21 -23 24 -35 20 -65 -3 -20 -1 -40 5 -43 5 -3 10 3 10 14 0
12 4 21 9 21 19 0 35 -34 36 -76 l2 -43 -39 38 c-21 21 -38 43 -38 49 0 6 -8
8 -18 5 -20 -5 -77 52 -62 62 17 10 0 25 -28 25 -30 1 -76 50 -54 58 25 8 11
22 -23 22 -26 0 -39 6 -51 25 -8 13 -13 29 -10 34 10 16 -11 22 -37 10 -19 -9
-31 -7 -57 6 -38 20 -55 10 -22 -13 l24 -15 -23 -13 c-31 -16 -93 11 -86 38 4
14 2 16 -13 8 -21 -11 -46 -5 -72 18 -16 13 -16 16 5 34 l22 19 -25 -7 c-14
-4 -28 -11 -32 -17 -4 -7 -19 -6 -47 3 -31 10 -38 16 -30 26 7 9 27 11 66 7
41 -5 54 -3 49 5 -4 7 -15 12 -24 12 -9 0 -23 4 -31 9 -11 7 -8 13 13 26 24
16 28 16 62 0 20 -9 38 -14 41 -11 3 3 -16 15 -42 26 -26 11 -45 23 -42 27 4
3 2 12 -5 20 -6 7 -9 16 -6 18 7 7 98 -25 98 -35 0 -4 11 -7 25 -7 13 0 22 3
19 8 -3 5 -11 9 -19 9 -8 0 -16 16 -20 40 -4 22 -11 40 -17 40 -6 0 -8 -12 -4
-30 3 -16 4 -30 3 -30 -2 0 -24 7 -50 16 -40 14 -47 20 -53 50 -4 21 -12 34
-21 34 -10 0 -13 -6 -8 -17 4 -10 10 -24 13 -32 4 -10 1 -13 -11 -8 -8 3 -31
9 -50 12 -27 5 -37 14 -47 41 -8 19 -20 34 -27 34 -9 0 -10 -6 -2 -26 5 -15 8
-28 7 -30 -2 -1 -22 0 -46 3 -34 5 -46 12 -63 39 -11 19 -25 34 -30 34 -13 0
-11 -13 7 -38 15 -22 15 -22 -33 -22 -36 0 -53 5 -66 20 -9 11 -17 22 -17 25
0 2 21 6 48 8 39 3 35 4 -21 5 -65 2 -67 1 -55 -18z m-55 -89 c21 -28 21 -28
2 -60 -15 -25 -25 -31 -52 -31 -31 0 -33 2 -33 37 0 20 -5 38 -12 41 -27 9
-11 31 26 35 20 2 40 4 43 5 3 1 15 -11 26 -27z m118 9 c3 -11 13 -20 21 -20
17 0 18 12 2 28 -9 9 -1 12 38 12 47 0 51 -2 64 -32 14 -31 13 -35 -6 -55 -15
-17 -32 -23 -63 -23 -45 0 -49 5 -24 32 15 17 15 18 0 18 -9 0 -24 -11 -33
-25 -13 -20 -25 -25 -55 -25 -45 0 -52 19 -16 43 15 11 18 16 7 17 -8 0 -23
12 -33 25 l-18 25 55 0 c46 0 56 -3 61 -20z m211 4 c20 -5 50 -51 40 -61 -2
-2 -20 0 -40 5 -21 6 -36 7 -36 1 0 -5 10 -9 23 -9 38 0 50 -14 30 -33 -13
-11 -29 -14 -61 -10 -47 6 -52 15 -21 37 20 14 20 16 6 45 -15 31 -15 31 11
31 15 0 37 -3 48 -6z m-432 -75 c-8 -8 -14 -20 -14 -26 0 -8 -62 -33 -82 -33
-3 0 -3 12 0 28 5 24 3 25 -11 14 -9 -8 -17 -23 -19 -34 -2 -13 -16 -25 -43
-34 -22 -7 -41 -14 -43 -14 -1 0 0 11 4 25 3 14 3 25 -1 25 -14 0 -37 -31 -31
-45 3 -9 -8 -22 -28 -34 -41 -26 -46 -26 -46 -2 0 12 11 23 30 30 41 14 38 25
-5 18 -19 -3 -35 -2 -35 4 0 5 -6 9 -14 9 -32 0 -25 20 14 40 37 19 42 19 63
5 33 -23 57 -19 28 6 -13 11 -22 21 -20 23 2 1 25 9 52 16 43 11 49 11 67 -5
11 -10 23 -15 28 -11 4 4 -2 14 -12 22 -24 17 -22 19 29 31 36 8 43 7 71 -16
27 -23 29 -28 18 -42z m536 55 c24 -5 36 -15 46 -40 19 -45 18 -49 -11 -30
-13 9 -36 16 -50 16 -15 0 -25 6 -25 14 0 8 -3 21 -6 30 -7 18 -1 19 46 10z
m33 -84 c5 -4 -1 -15 -13 -23 -17 -12 -29 -13 -53 -5 -42 14 -42 15 -27 34 10
11 23 14 49 9 20 -4 40 -10 44 -15z m-283 -25 c0 -23 -17 -35 -51 -35 -41 0
-48 9 -25 33 12 11 76 13 76 2z m-210 -3 c0 -19 -27 -42 -57 -48 -35 -7 -41 2
-24 35 10 17 81 29 81 13z m98 -11 c-7 -11 -26 -21 -45 -23 -40 -5 -42 -3 -36
23 4 15 14 19 49 19 41 0 43 -1 32 -19z m222 -1 c0 -16 -34 -28 -63 -23 -27 5
-33 13 -20 26 10 11 83 8 83 -3z m-757 -14 c16 -13 14 -16 -25 -39 -39 -23
-44 -23 -65 -10 l-23 15 33 23 c37 27 55 29 80 11z m323 -2 c-3 -9 -6 -20 -6
-24 0 -9 -71 -33 -77 -26 -11 10 19 55 39 59 45 8 50 7 44 -9z m517 2 c15 -4
25 -11 22 -16 -7 -11 -78 -14 -88 -4 -8 8 15 32 28 29 5 -2 23 -6 38 -9z
m-620 -40 c-3 -14 -18 -29 -39 -40 -43 -20 -44 -20 -44 3 0 12 14 27 38 39 49
26 50 26 45 -2z m-193 -22 c0 -13 -55 -54 -72 -54 -5 0 -8 10 -8 23 0 16 10
28 33 39 35 17 47 15 47 -8z m90 -28 c0 -13 -68 -61 -76 -53 -11 10 12 48 35
56 36 13 41 13 41 -3z m-190 -28 c0 -14 -14 -34 -35 -51 l-35 -28 0 30 c0 20
8 36 28 50 35 26 42 26 42 -1z m63 -64 l-28 -22 -8 24 c-10 29 4 51 36 56 34
5 34 -30 0 -58z m1267 42 c0 -3 -4 -8 -10 -11 -5 -3 -10 -1 -10 4 0 6 5 11 10
11 6 0 10 -2 10 -4z m-50 -26 c0 -5 6 -10 13 -10 7 0 18 -9 24 -19 10 -16 9
-20 -10 -25 -12 -3 -24 -2 -27 3 -3 4 -15 13 -27 20 -27 14 -29 28 -5 34 29 8
32 7 32 -3z m-1280 -32 c0 -21 -39 -78 -54 -78 -3 0 -6 11 -6 24 0 16 7 27 20
31 11 4 18 11 15 16 -7 11 3 29 16 29 5 0 9 -10 9 -22z m1380 -50 c30 -22 31
-38 2 -38 -20 1 -62 34 -62 49 0 18 29 13 60 -11z m-1460 -33 c0 -29 -39 -60
-55 -44 -7 7 -3 16 13 29 12 10 22 26 22 35 0 9 5 13 10 10 6 -3 10 -17 10
-30z m1537 -47 c29 -27 29 -38 2 -38 -19 0 -58 35 -59 53 0 15 35 6 57 -15z
m231 -18 c7 -11 9 -20 4 -20 -4 0 -13 9 -20 20 -7 11 -9 20 -4 20 4 0 13 -9
20 -20z m-1484 -24 c75 -36 176 -120 217 -180 36 -53 79 -66 218 -66 160 0
177 5 226 58 108 119 200 189 282 211 66 19 145 13 193 -12 133 -70 149 -210
54 -457 -45 -113 -45 -114 -26 -140 10 -14 37 -34 60 -45 23 -11 42 -23 42
-27 0 -5 -13 -16 -29 -26 -16 -10 -27 -23 -23 -28 12 -19 49 -34 81 -34 26 0
31 -4 31 -24 0 -14 -4 -27 -10 -31 -5 -3 -6 -13 -3 -21 4 -11 17 -15 47 -13
l41 3 -1 -35 c-1 -20 -8 -51 -18 -69 -9 -18 -16 -46 -16 -62 0 -37 -33 -101
-65 -126 -31 -25 -31 -29 0 -54 35 -27 32 -33 -20 -36 -59 -2 -87 -18 -162
-91 -74 -71 -87 -75 -288 -95 -142 -13 -154 -16 -224 -52 -70 -37 -78 -39
-165 -39 -87 0 -95 2 -175 43 -62 31 -96 42 -130 42 -62 0 -217 18 -265 31
-25 7 -62 33 -105 73 -82 77 -98 86 -156 88 -25 1 -45 6 -45 11 0 12 26 37 39
37 18 0 12 13 -16 40 -36 34 -63 80 -63 108 0 12 -9 48 -20 79 -31 89 -28 101
23 105 44 3 47 8 36 63 -3 16 3 21 39 26 23 3 50 13 59 22 16 16 15 19 -17 46
l-35 28 33 8 c45 9 92 51 92 81 0 14 -12 53 -26 87 -38 88 -74 224 -74 277 0
142 88 230 228 230 53 0 78 -6 136 -34z m-354 4 c0 -10 -10 -28 -22 -39 -36
-34 -53 -4 -20 37 21 27 42 28 42 2z m1671 -42 c22 -28 24 -48 5 -48 -13 0
-56 49 -56 64 0 15 34 4 51 -16z m69 -13 c0 -7 6 -15 13 -18 6 -2 9 -8 4 -12
-4 -5 -14 0 -22 11 -16 22 -20 48 -5 39 6 -3 10 -12 10 -20z m-1810 -28 c0
-12 -7 -33 -16 -46 l-17 -24 -18 24 c-19 26 -9 52 17 42 8 -3 14 1 14 11 0 9
5 16 10 16 6 0 10 -10 10 -23z m1940 3 c0 -5 -7 -10 -15 -10 -8 0 -15 5 -15
10 0 6 7 10 15 10 8 0 15 -4 15 -10z m10 -37 c0 -18 -37 -16 -43 1 -4 10 2 13
19 12 13 0 24 -7 24 -13z m-142 -18 c16 -35 15 -45 -6 -45 -19 0 -56 53 -45
64 14 14 41 4 51 -19z m60 0 c14 -31 15 -35 3 -35 -5 0 -11 8 -15 18 -3 9 -9
23 -12 30 -3 6 -2 12 4 12 5 0 14 -11 20 -25z m-1928 -25 c8 -15 6 -28 -8 -56
l-18 -36 -18 26 c-16 25 -16 28 1 56 20 35 29 37 43 10z m960 10 c0 -5 -4 -10
-10 -10 -5 0 -10 5 -10 10 0 6 5 10 10 10 6 0 10 -4 10 -10z m1050 -10 c0 -5
-7 -10 -15 -10 -8 0 -15 5 -15 10 0 6 7 10 15 10 8 0 15 -4 15 -10z m35 -40
c-1 -17 4 -35 11 -41 10 -8 11 -16 3 -30 -15 -28 -35 -23 -56 14 l-19 32 25
27 c33 35 38 34 36 -2z m-155 -20 c0 -11 -2 -20 -5 -20 -2 0 -9 9 -15 20 -9
16 -8 20 5 20 8 0 15 -9 15 -20z m30 -45 c-7 -8 -16 -12 -21 -9 -13 8 -1 24
18 24 13 0 13 -3 3 -15z m24 -52 c2 -10 7 -28 11 -40 10 -34 -11 -28 -29 9 -9
17 -16 35 -16 40 0 16 29 8 34 -9z m136 -13 c0 -5 -5 -10 -11 -10 -5 0 -7 5
-4 10 3 6 8 10 11 10 2 0 4 -4 4 -10z m-67 -7 c2 -5 7 -20 11 -35 9 -40 -7
-34 -20 7 -10 30 -3 49 9 28z m-2098 -69 c-8 -47 -30 -39 -31 12 0 50 4 58 23
39 11 -11 13 -26 8 -51z m2060 -15 c9 -29 -4 -38 -21 -15 -18 25 -18 36 0 36
8 0 18 -9 21 -21z m-2081 -87 c-8 -46 -11 -49 -29 -31 -10 10 -13 26 -9 51 6
33 9 36 26 27 15 -8 18 -17 12 -47z m2246 23 c0 -8 -4 -15 -10 -15 -5 0 -10 7
-10 15 0 8 5 15 10 15 6 0 10 -7 10 -15z m-150 -65 c0 -15 6 -31 13 -33 7 -3
5 -6 -5 -6 -11 -1 -18 6 -18 17 0 9 -3 28 -7 41 -4 17 -3 22 5 17 7 -4 12 -20
12 -36z m110 30 c0 -5 -4 -10 -10 -10 -5 0 -10 5 -10 10 0 6 5 10 10 10 6 0
10 -4 10 -10z m50 -24 c0 -8 -4 -18 -10 -21 -5 -3 -10 -11 -10 -16 0 -6 5 -7
10 -4 6 4 10 -5 10 -19 0 -20 -5 -26 -21 -26 -20 0 -21 4 -15 42 4 22 9 45 12
50 8 13 24 9 24 -6z m-2270 -77 c0 -42 -4 -46 -26 -25 -11 11 -11 21 -3 45 14
40 29 30 29 -20z m2210 -15 c0 -7 -14 -4 -29 5 -8 5 -11 16 -6 31 7 22 7 22
21 -5 8 -15 14 -29 14 -31z m-2336 14 c-6 -19 -5 -21 8 -11 17 15 28 7 28 -19
0 -10 5 -27 12 -38 14 -22 6 -36 -14 -24 -21 13 -47 12 -59 -3 -20 -23 -29
-14 -29 31 0 37 5 48 28 65 34 26 35 26 26 -1z m2246 -8 c0 -5 -4 -10 -10 -10
-5 0 -10 5 -10 10 0 6 5 10 10 10 6 0 10 -4 10 -10z m73 -31 c12 -7 25 -16 28
-21 4 -6 16 1 29 14 14 15 21 18 20 8 -5 -36 -1 -41 35 -34 23 4 35 2 35 -5 0
-10 -16 -15 -47 -14 -7 1 -13 -5 -13 -13 0 -7 -13 -20 -30 -29 -16 -9 -30 -20
-30 -25 0 -13 7 -13 31 0 17 10 19 7 19 -34 0 -53 -8 -61 -46 -41 -16 8 -37
12 -46 9 -30 -9 -23 44 7 58 26 12 32 24 14 30 -7 2 -7 12 0 30 10 25 6 38
-11 38 -4 0 -8 -12 -8 -27 0 -39 -8 -24 -13 25 -6 46 -5 47 26 31z m-43 -47
c0 -10 -4 -10 -22 0 -28 16 -38 29 -32 40 7 11 53 -24 54 -40z m-2167 24 c10
-8 17 -26 17 -45 0 -34 -7 -38 -35 -17 -16 11 -17 17 -7 29 9 10 10 17 2 22
-12 7 -14 25 -2 25 4 0 15 -7 25 -14z m2139 -60 c-3 -17 -2 -18 12 -7 14 12
16 9 15 -20 -1 -19 -3 -26 -6 -16 -2 9 -9 17 -14 17 -6 0 -7 -9 -4 -21 5 -15
3 -20 -6 -17 -7 2 -18 22 -25 44 -6 21 -12 33 -13 27 -1 -14 -31 -18 -31 -5 0
16 15 23 45 20 23 -2 29 -7 27 -22z m-10 -131 c-3 -23 -9 -35 -19 -35 -11 0
-14 6 -9 23 3 12 6 33 6 46 0 18 3 21 13 13 8 -7 11 -25 9 -47z m138 -40 c0
-8 -4 -15 -10 -15 -5 0 -10 7 -10 15 0 8 5 15 10 15 6 0 10 -7 10 -15z m-166
-53 c-11 -51 -14 -56 -25 -45 -8 8 -8 21 1 47 13 41 33 39 24 -2z m81 28 c-3
-5 -10 -10 -16 -10 -5 0 -9 5 -9 10 0 6 7 10 16 10 8 0 12 -4 9 -10z m-2192
-63 c2 -12 8 -30 12 -39 5 -14 2 -18 -14 -18 -22 0 -41 33 -41 70 0 26 37 15
43 -13z m81 -31 c21 -44 21 -44 -9 -38 -16 3 -25 11 -25 22 0 10 -3 25 -6 34
-12 32 24 16 40 -18z m-64 -56 c10 0 45 -68 38 -75 -12 -12 -48 11 -59 39 -7
17 -15 35 -17 40 -3 5 3 6 12 3 10 -4 22 -7 26 -7z m-37 -43 c11 -26 14 -43 7
-45 -5 -2 -10 -10 -10 -18 0 -25 -15 -15 -33 25 -16 33 -17 41 -6 60 8 11 16
21 19 21 3 0 13 -19 23 -43z m122 25 c14 -9 35 -59 29 -65 -12 -12 -44 7 -44
26 0 11 -8 26 -17 33 -17 13 -17 13 2 14 11 0 25 -4 30 -8z m-25 -97 c6 -8 8
-20 4 -26 -4 -7 -3 -9 2 -6 6 3 15 -3 22 -14 10 -16 9 -19 -7 -19 -23 0 -47
22 -56 50 -3 11 -11 20 -16 20 -13 0 -11 -11 10 -46 18 -29 18 -32 1 -53 l-17
-23 -21 36 c-26 44 -26 41 -6 71 19 28 64 34 84 10z m2111 -9 c-5 -6 -25 -13
-43 -14 -25 -2 -29 0 -18 8 13 8 12 10 -5 11 -11 1 -2 5 20 8 46 8 60 4 46
-13z m-2016 -16 c19 -36 19 -40 0 -40 -8 0 -15 7 -15 15 0 9 -6 18 -14 21 -24
9 -28 34 -6 34 11 0 26 -12 35 -30z m-22 -94 l26 -34 -30 -6 c-22 -4 -33 -14
-40 -36 l-11 -30 -29 40 c-25 35 -27 43 -17 66 l12 26 28 -34 29 -33 -22 38
-21 37 25 0 c16 0 33 -11 50 -34z m82 7 l23 -28 -21 -8 c-15 -6 -26 -2 -41 13
-14 13 -16 20 -7 20 11 0 11 3 1 15 -24 29 19 17 45 -12z m1565 -17 c0 -7 -9
-16 -20 -19 -22 -6 -23 -5 -14 17 8 20 34 21 34 2z m-1574 -85 c22 -25 22 -26
3 -33 -22 -9 -49 0 -49 15 0 6 -3 7 -6 4 -4 -4 -2 -12 4 -19 5 -7 8 -26 5 -41
l-6 -28 -32 31 c-30 29 -32 34 -23 69 9 35 11 37 45 33 23 -3 44 -14 59 -31z
m81 15 c21 -24 20 -36 -1 -36 -6 1 -27 14 -46 30 l-34 30 30 0 c20 0 38 -9 51
-24z m1423 14 c0 -15 -49 -32 -79 -27 -26 3 -26 3 4 11 17 4 37 11 45 16 20
12 30 12 30 0z m60 -34 c0 -3 -4 -8 -10 -11 -5 -3 -10 -1 -10 4 0 6 5 11 10
11 6 0 10 -2 10 -4z m-153 -22 c-3 -3 -12 -4 -19 -1 -8 3 -5 6 6 6 11 1 17 -2
13 -5z m-1248 -38 c21 -23 22 -24 2 -29 -13 -3 -29 5 -47 24 l-28 29 25 0 c14
0 36 -11 48 -24z m-91 -15 c31 -27 32 -30 15 -40 -23 -13 -10 -14 61 0 33 6
69 7 84 2 15 -5 61 -6 102 -3 41 3 89 3 105 -1 32 -7 30 -8 -33 -13 -7 -1 -16
-7 -20 -13 -4 -7 -21 -10 -40 -8 -39 5 -40 -3 -4 -31 l27 -22 -28 -7 c-36 -9
-80 12 -74 35 3 14 -4 17 -39 17 -30 0 -44 -5 -44 -14 0 -15 -46 -18 -55 -3
-8 13 -25 13 -25 1 0 -5 9 -12 20 -16 18 -6 21 -27 11 -73 -1 -2 -17 9 -36 24
-26 19 -35 34 -35 55 0 16 -4 29 -10 29 -5 0 -10 -7 -10 -15 0 -21 -3 -19 -40
15 -28 26 -31 35 -26 64 5 25 13 36 29 39 12 2 24 5 27 5 3 1 20 -12 38 -27z
m1417 19 c3 -5 1 -10 -4 -10 -6 0 -11 5 -11 10 0 6 2 10 4 10 3 0 8 -4 11 -10z
m75 -20 c0 -19 -5 -30 -14 -30 -7 0 -19 -7 -26 -15 -14 -17 -30 -11 -30 11 0
16 47 64 61 64 5 0 9 -13 9 -30z m-1308 -145 c26 -22 31 -30 12 -22 -11 4 -33
-48 -28 -65 7 -24 -11 -23 -47 3 -38 26 -41 80 -6 97 32 15 36 15 69 -13z
m108 -52 c33 -16 33 -17 12 -26 -23 -10 -30 -27 -11 -27 6 0 19 5 31 11 28 15
112 -9 96 -28 -6 -8 -20 -10 -34 -7 -18 5 -24 2 -24 -10 0 -9 5 -16 10 -16 11
0 34 -50 27 -56 -2 -3 -25 4 -50 13 -31 11 -47 23 -47 34 0 26 -11 49 -22 49
-6 0 -8 -11 -5 -25 2 -14 2 -24 -2 -23 -3 2 -23 10 -43 18 -32 12 -38 19 -38
43 0 22 4 28 15 23 8 -3 15 -1 15 4 0 6 -10 11 -22 11 l-23 2 23 4 c12 2 22 9
22 14 0 14 34 11 70 -8z m233 -82 c17 -6 17 -8 3 -20 -13 -11 -22 -11 -46 -1
-16 7 -30 16 -30 21 0 11 47 11 73 0z m-108 -15 c7 3 39 -8 71 -24 33 -16 75
-32 94 -36 24 -4 39 -14 47 -31 13 -28 11 -29 -49 -19 -21 4 -38 12 -38 20 0
14 -30 47 -37 40 -3 -2 0 -14 7 -25 13 -24 13 -24 -46 -10 -32 8 -44 16 -44
30 0 11 -9 28 -20 39 -11 11 -20 23 -20 27 0 4 5 2 11 -4 6 -6 17 -9 24 -7z
m468 7 c-7 -2 -19 -2 -25 0 -7 3 -2 5 12 5 14 0 19 -2 13 -5z m-247 -13 c12 0
12 -4 2 -21 -11 -17 -19 -19 -53 -14 -48 7 -51 10 -34 29 9 11 24 14 43 11 16
-3 35 -5 42 -5z m124 -18 c0 -19 -27 -32 -67 -32 -46 0 -50 3 -30 25 13 15 97
21 97 7z"/>
<path d="M662 1987 c-112 -42 -143 -127 -107 -295 15 -72 54 -184 75 -219 18
-29 5 -70 -36 -111 -38 -38 -40 -42 -19 -42 8 0 15 -4 15 -9 0 -21 -55 -73
-93 -88 -35 -14 -38 -18 -23 -29 16 -11 15 -14 -11 -38 -15 -15 -38 -29 -50
-32 -31 -8 -29 -20 12 -81 41 -61 41 -63 15 -63 -11 0 -20 -2 -20 -5 0 -16 40
-62 88 -101 49 -40 53 -46 34 -51 -25 -6 -30 -23 -7 -23 38 0 201 -103 172
-108 -83 -16 124 -62 282 -62 52 0 160 -26 171 -42 3 -3 12 -6 20 -6 34 2 51
-3 45 -12 -5 -8 -12 -7 -23 2 -13 11 -14 11 -10 -2 11 -34 184 -38 246 -6 18
9 30 21 27 25 -2 5 6 12 20 15 14 4 25 10 25 14 0 4 37 8 81 10 80 4 150 19
104 22 -17 2 -16 3 5 10 14 4 34 8 44 9 20 1 20 1 0 -15 -18 -14 -14 -15 41
-9 71 8 135 25 135 37 0 4 -10 8 -21 8 -19 0 -17 3 12 25 46 33 150 85 172 85
9 0 17 5 17 10 0 6 -9 10 -19 10 -11 0 -23 5 -26 10 -3 6 -1 10 4 10 6 0 41
30 79 67 60 60 65 68 45 71 -13 2 -23 6 -23 10 0 4 16 32 35 62 19 30 35 57
35 61 0 4 -10 10 -22 13 -13 3 -36 18 -53 31 -27 23 -28 27 -12 36 25 15 21
29 -9 29 -17 0 -40 14 -65 39 -41 41 -49 61 -24 61 22 0 19 7 -19 41 -45 39
-53 78 -28 132 41 88 82 247 82 320 0 54 -36 124 -78 152 -53 34 -128 42 -189
19 -80 -30 -124 -62 -224 -164 -112 -115 -112 -115 -317 -108 -142 6 -177 17
-213 71 -41 59 -140 146 -202 177 -71 35 -147 45 -195 27z m308 -597 c46 -6
66 -6 71 2 10 16 92 -17 134 -53 38 -34 42 -35 48 -11 5 24 24 -50 31 -125 3
-39 2 -63 -4 -63 -6 0 -10 8 -10 18 0 20 -36 81 -59 100 -9 7 -29 19 -44 28
-28 15 -29 15 -22 -8 l7 -23 -23 22 c-36 32 -116 47 -171 32 -34 -10 -38 -14
-20 -17 24 -4 21 -22 -3 -22 -8 0 -44 -20 -81 -45 -36 -25 -60 -45 -55 -45 6
0 11 -7 11 -15 0 -20 -60 -56 -82 -49 -19 6 -25 -11 -8 -21 20 -12 9 -25 -20
-25 -36 0 -39 -22 -13 -78 12 -26 14 -37 5 -40 -20 -6 23 -76 75 -122 62 -54
144 -93 210 -98 29 -3 53 -2 53 0 0 3 -5 19 -11 36 -30 87 91 235 212 257 l36
7 7 -48 c8 -62 -7 -113 -44 -149 -53 -51 -35 -118 39 -143 99 -34 211 11 211
85 0 13 -14 37 -30 55 -39 40 -55 93 -46 153 l8 47 35 -7 c40 -7 103 -44 146
-84 56 -51 83 -133 64 -188 -8 -21 -5 -23 26 -23 53 0 128 27 187 68 61 43
138 141 119 153 -9 5 -8 18 5 48 23 59 21 71 -12 71 -39 0 -45 9 -25 33 17 20
17 20 0 14 -22 -8 -83 18 -91 39 -3 8 1 17 9 20 16 7 -87 79 -140 98 l-30 10
30 6 30 6 -43 14 c-51 16 -144 -1 -170 -31 -9 -10 -21 -19 -26 -19 -6 0 -5 5
2 12 24 24 11 28 -27 8 -45 -22 -78 -64 -87 -109 -4 -17 -11 -31 -17 -31 -14
0 -2 128 16 171 14 31 15 32 16 9 l1 -25 23 27 c23 28 113 78 140 78 8 0 17
-4 19 -9 2 -5 31 -5 68 0 65 9 148 -1 180 -21 11 -7 7 -10 -17 -10 -18 0 -33
-3 -33 -8 0 -4 15 -12 33 -18 126 -45 172 -65 177 -79 3 -9 38 -49 78 -89 l72
-73 -14 -39 c-38 -109 -122 -212 -232 -284 -79 -52 -151 -75 -264 -85 -58 -5
-96 -16 -165 -48 -118 -54 -170 -58 -256 -22 -119 50 -164 63 -257 73 -187 21
-347 134 -432 305 -23 45 -39 86 -38 93 2 7 33 44 69 81 36 37 71 78 78 91 6
12 19 22 29 22 9 0 28 6 42 13 14 7 48 21 75 31 66 24 77 36 35 36 -43 0 -33
10 27 26 59 16 55 16 133 4z m765 -160 c4 -6 -13 -10 -44 -10 -28 0 -51 5 -51
10 0 6 20 10 44 10 25 0 48 -4 51 -10z m-635 -82 c37 -27 41 -33 25 -36 -11
-2 -24 -8 -29 -13 -31 -29 -90 6 -80 46 4 17 1 24 -13 28 -10 3 -2 5 18 6 25
1 47 -8 79 -31z m509 25 c-11 -3 -15 -12 -11 -29 2 -13 -1 -31 -8 -39 -14 -16
-70 -21 -70 -6 0 5 -10 11 -22 13 -20 3 -18 7 22 36 29 21 54 32 74 31 17 -1
24 -3 15 -6z m255 -69 c9 -3 16 -13 16 -21 0 -9 8 -22 18 -30 15 -12 14 -13
-10 -7 -15 3 -35 1 -45 -5 -19 -11 -17 -11 72 -15 18 -1 21 -8 17 -35 -1 -5
-50 -9 -109 -9 -60 0 -97 4 -83 7 14 4 25 13 25 21 0 12 -28 16 -155 20 -178
7 -180 12 -5 12 66 0 110 2 98 5 -40 8 -25 21 35 29 31 4 49 10 40 12 -10 2
-18 8 -18 13 0 10 79 12 104 3z m316 -15 c0 -5 -4 -9 -10 -9 -5 0 -10 7 -10
16 0 8 5 12 10 9 6 -3 10 -10 10 -16z m-500 -109 c-36 -12 -80 -12 -80 0 0 6
24 10 53 9 41 -1 47 -3 27 -9z m87 -195 c-20 -15 -95 -30 -104 -21 -3 3 -3 12
0 21 5 11 21 15 64 15 52 -1 56 -2 40 -15z m-365 -47 c-40 -40 -202 -29 -202
13 0 5 51 9 112 9 l112 0 -22 -22z m418 -57 c0 -5 -7 -12 -16 -15 -24 -9 -28
-7 -14 9 14 17 30 20 30 6z"/>
<path d="M2401 1764 c0 -11 3 -14 6 -6 3 7 2 16 -1 19 -3 4 -6 -2 -5 -13z"/>
<path d="M850 226 c0 -2 7 -6 15 -10 8 -3 15 -1 15 4 0 6 -7 10 -15 10 -8 0
-15 -2 -15 -4z"/>
<path d="M1883 2466 c4 -10 7 -22 7 -27 0 -5 5 -9 11 -9 15 0 7 43 -10 48 -10
3 -12 0 -8 -12z"/>
<path d="M1800 2395 c0 -8 -15 -22 -32 -32 -25 -13 -29 -18 -16 -21 9 -2 26 1
37 7 10 6 34 8 53 5 l33 -5 -32 15 c-23 10 -31 20 -27 30 3 9 1 16 -5 16 -6 0
-11 -7 -11 -15z"/>
<path d="M1907 2383 c-11 -10 -8 -43 3 -43 6 0 10 9 10 19 0 14 6 18 23 15 20
-4 21 -4 2 5 -25 12 -30 13 -38 4z"/>
<path d="M2000 2341 c0 -6 5 -13 10 -16 6 -3 10 1 10 9 0 9 -4 16 -10 16 -5 0
-10 -4 -10 -9z"/>
<path d="M2110 2311 c0 -29 -3 -33 -20 -28 -19 5 -19 4 2 -19 13 -13 25 -24
28 -24 8 0 5 88 -3 96 -4 4 -7 -7 -7 -25z"/>
<path d="M1860 2301 c-8 -6 -19 -7 -25 -4 -5 3 -5 0 1 -6 9 -10 18 -10 40 3
16 8 22 15 14 15 -8 1 -22 -3 -30 -8z"/>
<path d="M2165 2200 c25 -27 65 -28 58 0 -6 23 -23 27 -23 5 0 -8 -4 -15 -10
-15 -5 0 -10 4 -10 9 0 5 -8 12 -17 15 -15 6 -15 4 2 -14z"/>
<path d="M2100 2200 c0 -5 5 -10 11 -10 5 0 7 5 4 10 -3 6 -8 10 -11 10 -2 0
-4 -4 -4 -10z"/>
<path d="M2252 2189 c2 -7 10 -15 17 -17 8 -3 12 1 9 9 -2 7 -10 15 -17 17 -8
3 -12 -1 -9 -9z"/>
<path d="M455 2080 c-3 -5 -1 -10 4 -10 6 0 11 5 11 10 0 6 -2 10 -4 10 -3 0
-8 -4 -11 -10z"/>
<path d="M375 2030 c-3 -5 -1 -10 4 -10 6 0 11 5 11 10 0 6 -2 10 -4 10 -3 0
-8 -4 -11 -10z"/>
<path d="M151 1094 c0 -11 3 -14 6 -6 3 7 2 16 -1 19 -3 4 -6 -2 -5 -13z"/>
<path d="M2535 910 c-3 -5 -1 -10 4 -10 6 0 11 5 11 10 0 6 -2 10 -4 10 -3 0
-8 -4 -11 -10z"/>
<path d="M2366 681 c-4 -6 -20 -11 -37 -11 -16 0 -29 -4 -29 -10 0 -5 9 -10
20 -10 25 0 25 -3 -2 -45 -20 -29 -29 -35 -60 -35 -43 0 -52 -17 -11 -22 l27
-3 -33 -37 c-27 -32 -37 -36 -62 -31 -17 3 -29 1 -29 -5 0 -6 9 -12 20 -14 19
-3 19 -4 -6 -31 -36 -39 -24 -45 14 -6 27 27 36 31 66 26 41 -7 59 9 21 19
-32 8 -31 12 5 51 24 26 36 31 64 28 23 -2 37 2 40 11 4 10 -3 14 -24 14 -35
0 -36 3 -10 45 15 25 29 34 59 39 22 3 43 11 47 17 4 8 -3 9 -26 4 -22 -5 -35
-3 -40 5 -5 9 -9 9 -14 1z"/>
<path d="M2168 619 c-23 -25 -23 -32 1 -19 16 8 21 6 26 -10 10 -30 24 -14 16
17 -9 33 -21 37 -43 12z"/>
<path d="M2079 377 l24 -14 -24 -17 c-30 -21 -16 -21 17 0 17 11 37 15 64 11
22 -3 42 -2 45 3 5 9 -40 20 -105 26 -42 4 -44 3 -21 -9z"/>
<path d="M1814 325 c-24 -18 -51 -19 -57 -2 -2 6 -9 -12 -16 -42 -9 -44 -9
-56 1 -63 7 -4 9 -8 3 -8 -5 0 1 -7 14 -17 23 -15 23 -17 6 -30 -21 -15 -8
-18 15 -3 10 6 24 3 46 -11 44 -27 65 -23 30 5 l-29 24 41 21 c38 19 45 20 76
7 18 -8 39 -10 46 -6 8 5 1 11 -19 18 -17 6 -31 13 -31 15 0 3 15 14 33 26 41
27 23 27 -21 1 -25 -15 -37 -18 -52 -10 -10 5 -27 10 -37 10 -16 0 -15 -3 5
-18 l23 -18 -40 -22 c-31 -17 -45 -21 -59 -13 -54 29 -51 88 4 115 43 20 44
20 44 -4 0 -11 5 -20 10 -20 6 0 10 14 10 30 0 33 -15 38 -46 15z"/>
<path d="M2018 293 c7 -3 16 -2 19 1 4 3 -2 6 -13 5 -11 0 -14 -3 -6 -6z"/>
<path d="M2065 276 c11 -8 24 -12 28 -9 11 7 -12 23 -32 23 -11 0 -9 -4 4 -14z"/>
<path d="M1642 263 c-5 -10 -12 -31 -16 -48 -6 -26 -6 -28 7 -15 15 15 33 80
23 80 -3 0 -9 -8 -14 -17z"/>
<path d="M1680 270 c0 -13 11 -13 30 0 12 8 11 10 -7 10 -13 0 -23 -4 -23 -10z"/>
<path d="M1345 260 c-3 -5 -1 -10 4 -10 6 0 11 5 11 10 0 6 -2 10 -4 10 -3 0
-8 -4 -11 -10z"/>
<path d="M1485 220 c-16 -7 -17 -9 -3 -9 9 -1 20 4 23 9 7 11 7 11 -20 0z"/>
<path d="M1516 184 c-4 -9 -4 -19 -1 -22 2 -3 7 3 11 12 4 9 4 19 1 22 -2 3
-7 -3 -11 -12z"/>
<path d="M1647 146 c10 -13 33 -29 51 -36 17 -6 32 -16 32 -21 0 -5 7 -9 15
-9 22 0 18 14 -7 25 -26 12 -34 32 -16 38 7 2 1 2 -13 0 -15 -2 -31 2 -39 12
-7 8 -19 15 -27 15 -11 0 -10 -5 4 -24z"/>
<path d="M900 70 c20 -13 43 -13 35 0 -3 6 -16 10 -28 10 -18 0 -19 -2 -7 -10z"/>
<path d="M1143 13 c9 -2 23 -2 30 0 6 3 -1 5 -18 5 -16 0 -22 -2 -12 -5z"/>
</g>
</svg>
